<?xml version="1.0" standalone="no"?>
<!DOCTYPE svg PUBLIC "-//W3C//DTD SVG 20010904//EN"
 "http://www.w3.org/TR/2001/REC-SVG-20010904/DTD/svg10.dtd">
<svg version="1.0" xmlns="http://www.w3.org/2000/svg"
 width="1024.000000pt" height="1024.000000pt" viewBox="0 0 1024.000000 1024.000000"
 preserveAspectRatio="xMidYMid meet">

<g transform="translate(0.000000,1024.000000) scale(0.100000,-0.100000)"
fill="#FFFFFF" stroke="none">
<path d="M5126 8491 c-11 -16 -53 -317 -81 -576 -28 -256 -146 -1084 -171
-1203 l-4 -22 -60 30 c-32 16 -80 43 -106 60 -27 16 -55 30 -64 30 -21 0 -50
-31 -50 -54 0 -19 40 -76 93 -132 16 -18 25 -34 19 -37 -11 -8 -545 -96 -852
-141 -229 -34 -291 -42 -722 -91 -114 -13 -212 -26 -218 -30 -23 -14 11 -33
73 -39 107 -12 917 -133 1237 -185 453 -74 510 -85 510 -96 0 -5 -29 -46 -65
-90 -67 -81 -77 -111 -49 -139 31 -31 69 -17 182 68 30 22 56 35 61 30 19 -21
202 -1261 248 -1682 5 -48 23 -75 39 -60 6 7 49 299 69 473 54 466 173 1235
195 1258 4 5 45 -16 91 -47 46 -31 94 -56 106 -56 28 0 63 33 63 60 0 10 -31
56 -69 102 -38 46 -68 85 -66 87 11 10 883 153 1350 221 441 64 468 69 469 85
1 15 -41 22 -379 60 -372 42 -733 91 -1065 145 -135 22 -269 42 -297 46 -29 4
-53 9 -53 13 0 3 27 42 60 86 33 44 60 86 60 93 0 18 -37 52 -57 52 -10 0 -52
-22 -93 -50 -84 -55 -127 -64 -134 -27 -3 12 -12 65 -20 117 -9 52 -27 165
-41 250 -26 167 -114 816 -140 1045 -33 288 -51 376 -69 346z m39 -1746 c9
-181 17 -331 18 -331 1 -1 83 63 182 142 99 79 184 143 188 144 5 0 -25 -39
-66 -87 -138 -165 -227 -277 -222 -282 7 -7 408 -29 565 -32 190 -2 208 -14
35 -22 -82 -4 -253 -16 -380 -27 -126 -11 -231 -20 -232 -20 -13 -1 10 -33 85
-117 120 -135 233 -275 191 -237 -19 17 -68 54 -109 82 -41 27 -111 77 -155
110 l-80 60 -7 -112 c-4 -61 -15 -223 -23 -361 -9 -137 -18 -251 -19 -253 -4
-3 -12 111 -32 443 -9 154 -17 281 -19 283 -2 3 -263 -183 -345 -245 l-35 -27
37 39 c51 55 276 329 273 333 -2 2 -110 12 -241 23 -156 13 -365 22 -599 25
-342 4 -615 24 -615 44 0 4 32 10 70 14 160 15 778 116 1018 166 105 23 112
23 112 11 0 -22 -269 -126 -467 -182 l-138 -38 145 4 c306 11 666 27 688 31
23 5 23 5 5 28 -67 86 -231 287 -256 314 -38 40 -29 42 15 4 18 -16 89 -71
157 -123 68 -52 134 -102 147 -112 33 -26 28 -66 66 578 15 262 17 250 43
-270z"/>
<path d="M6867 8203 c-4 -3 -7 -16 -7 -29 0 -42 -41 -153 -67 -185 -32 -37
-88 -64 -154 -74 -25 -4 -52 -11 -60 -16 -21 -14 12 -36 64 -44 120 -19 185
-82 210 -206 19 -92 38 -90 61 5 33 143 71 174 254 212 46 9 23 32 -51 48 -40
9 -90 28 -110 42 -44 30 -81 98 -96 177 -14 74 -24 91 -44 70z"/>
<path d="M3356 8155 c-14 -93 -35 -142 -75 -178 -36 -33 -119 -67 -161 -67
-21 0 -57 -26 -48 -35 3 -4 37 -13 75 -22 132 -30 174 -70 203 -197 21 -93 39
-94 61 -6 31 130 74 176 185 200 27 5 59 12 72 15 31 7 28 33 -5 41 -176 38
-216 74 -253 224 -21 82 -44 93 -54 25z"/>
<path d="M4815 7909 c-120 -23 -265 -70 -405 -132 -63 -27 -118 -53 -122 -56
-4 -3 46 -4 110 -3 91 3 152 -2 277 -23 88 -14 169 -27 179 -28 17 -2 21 12
37 123 11 69 18 128 16 131 -1 3 -42 -2 -92 -12z"/>
<path d="M5360 7908 c2 -59 48 -282 60 -286 44 -15 210 -141 290 -222 190
-190 327 -425 394 -678 12 -47 29 -89 37 -93 12 -6 468 -75 573 -87 l39 -4 -7
51 c-19 145 -101 351 -214 536 l-60 100 26 18 c88 59 204 96 304 97 25 0 75
-9 110 -19 l63 -20 -42 38 c-52 47 -150 96 -233 117 -85 21 -249 15 -337 -14
l-62 -20 -23 26 c-45 48 -204 176 -293 235 -113 75 -194 115 -320 161 -87 31
-276 86 -297 86 -5 0 -8 -10 -8 -22z m301 -274 c169 -59 262 -115 369 -224 94
-96 195 -276 235 -420 6 -22 3 -20 -21 10 -14 19 -72 78 -128 130 -55 52 -182
174 -281 270 -99 97 -204 197 -234 223 -29 26 -51 47 -48 47 3 0 51 -16 108
-36z"/>
<path d="M4165 7589 c-98 -13 -242 -53 -318 -87 -79 -36 -200 -118 -246 -166
-40 -41 -32 -44 36 -15 73 31 192 57 324 69 137 14 260 4 458 -36 123 -25 319
-93 340 -118 9 -10 -5 -19 -62 -41 -114 -44 -296 -140 -368 -194 -91 -69 -204
-191 -271 -291 -67 -102 -72 -99 122 -71 92 14 138 25 145 35 5 9 26 43 45 77
70 124 227 267 378 343 29 15 54 32 56 39 5 18 45 307 48 346 l3 35 -74 23
c-40 13 -112 30 -160 38 -108 19 -363 27 -456 14z"/>
<path d="M5420 7422 c0 -5 6 -43 14 -83 8 -41 20 -107 26 -147 12 -71 13 -73
53 -94 68 -33 173 -116 230 -179 42 -46 116 -170 153 -257 1 -2 18 -6 38 -9
37 -6 37 -5 30 23 -40 168 -201 432 -362 592 -81 80 -182 166 -182 154z"/>
<path d="M3907 7227 c-64 -9 -69 -12 -118 -65 -70 -77 -124 -159 -175 -266
-60 -127 -118 -365 -87 -359 6 1 65 10 130 20 l119 17 28 68 c67 163 257 374
451 500 49 32 84 58 76 58 -27 0 -168 -63 -245 -110 -89 -53 -260 -192 -300
-243 -14 -17 -26 -29 -26 -24 0 4 29 67 64 140 61 126 87 171 144 244 13 18
20 32 16 32 -5 -1 -39 -6 -77 -12z"/>
<path d="M3035 7138 c-52 -30 -61 -97 -19 -147 22 -26 33 -31 70 -31 61 0 94
32 94 90 0 76 -81 125 -145 88z"/>
<path d="M7115 7126 c-53 -53 -37 -134 31 -162 69 -29 134 14 134 89 0 84
-107 131 -165 73z"/>
<path d="M3510 6045 c0 -48 71 -300 111 -394 71 -166 176 -332 301 -473 117
-131 343 -309 466 -365 28 -14 52 -28 52 -32 0 -12 -129 -68 -201 -87 -48 -12
-89 -15 -164 -11 l-99 5 54 -34 c120 -75 245 -103 379 -85 90 13 215 55 281
94 35 21 48 23 88 16 26 -4 66 -10 90 -12 l43 -5 -6 31 c-27 156 -55 346 -55
369 0 41 -26 36 -70 -14 l-37 -42 -28 18 c-51 33 -205 189 -275 276 -120 150
-176 255 -285 530 -32 80 -58 146 -59 147 -2 3 -547 93 -566 93 -15 0 -20 -7
-20 -25z m711 -751 c128 -123 222 -198 354 -277 49 -30 90 -58 92 -63 4 -12
-119 -114 -137 -114 -25 0 -137 90 -226 181 -139 144 -234 289 -300 460 -19
48 -34 91 -34 95 0 3 31 -34 69 -83 37 -48 120 -138 182 -199z"/>
<path d="M6589 6042 l-136 -25 -52 -104 c-94 -190 -262 -418 -365 -497 -60
-45 -35 -41 45 8 130 79 307 256 439 436 l32 45 -7 -50 c-18 -133 -122 -366
-202 -456 -40 -44 -43 -49 -22 -45 13 3 55 11 94 16 38 6 70 12 70 13 1 1 21
33 45 72 24 38 58 101 75 140 39 86 109 298 125 380 6 33 14 68 16 78 6 21 12
21 -157 -11z"/>
<path d="M6076 5961 l-129 -26 -37 -82 c-47 -102 -87 -160 -164 -242 -67 -70
-188 -156 -237 -166 -17 -4 -34 -16 -40 -28 -18 -41 -56 -347 -45 -356 13 -10
124 -47 181 -60 32 -7 16 -9 -82 -10 l-122 -1 -6 -57 c-4 -32 -13 -103 -21
-157 -8 -54 -12 -101 -10 -104 9 -9 245 48 348 84 109 38 220 91 321 153 35
21 86 43 113 49 159 35 358 127 475 220 69 54 169 159 169 176 0 4 -24 -6 -52
-22 -129 -74 -312 -127 -485 -142 -245 -22 -501 13 -671 91 l-67 31 60 22
c256 98 457 276 625 556 27 46 50 87 50 92 0 12 -32 8 -174 -21z"/>
<path d="M4225 5952 c-13 -13 114 -259 198 -381 73 -107 226 -256 323 -313 50
-30 80 -42 82 -35 3 14 -25 208 -30 211 -208 95 -326 209 -440 426 -44 83 -46
85 -87 91 -23 3 -43 3 -46 1z"/>
<path d="M7155 5663 c-58 -14 -89 -87 -61 -141 32 -61 108 -72 157 -23 68 69
0 186 -96 164z"/>
<path d="M3020 5640 c-40 -40 -38 -103 5 -146 45 -45 131 -21 156 44 13 33 -5
86 -36 106 -35 23 -100 21 -125 -4z"/>
<path d="M3365 5058 c-2 -7 -9 -35 -15 -63 -28 -130 -76 -180 -200 -209 -105
-25 -105 -45 0 -67 71 -15 121 -40 153 -79 25 -29 33 -52 54 -145 5 -23 15
-40 23 -40 14 0 17 7 44 107 27 96 81 140 208 167 32 7 60 16 63 21 8 13 -22
26 -75 35 -127 21 -185 80 -213 217 -12 59 -32 85 -42 56z"/>
<path d="M6867 5063 c-2 -5 -10 -35 -16 -69 -21 -102 -49 -145 -111 -176 -30
-16 -77 -32 -103 -37 -92 -17 -88 -40 12 -60 119 -25 170 -73 197 -186 18 -74
32 -101 45 -88 5 5 18 44 29 86 11 43 29 92 41 109 26 36 106 75 171 84 57 8
79 27 49 43 -11 6 -28 11 -39 11 -10 0 -43 7 -73 16 -92 27 -141 98 -164 237
-5 34 -27 50 -38 30z"/>
<path d="M7799 4083 c-5 -40 -5 -1154 1 -1162 4 -8 43 -11 116 -9 l109 3 5 53
5 54 22 -30 c12 -17 52 -45 88 -63 60 -29 70 -31 142 -27 141 8 250 83 314
214 81 165 30 385 -116 495 -69 52 -122 69 -214 69 -86 0 -157 -26 -201 -74
l-25 -28 -5 254 -5 253 -117 3 c-65 1 -118 -1 -119 -5z m489 -618 c75 -32 115
-90 115 -170 0 -66 -22 -116 -69 -151 -33 -26 -46 -29 -109 -29 -81 0 -123 21
-166 83 -37 54 -34 136 6 193 35 49 103 89 152 89 18 0 50 -7 71 -15z"/>
<path d="M3414 4020 c-39 -25 -57 -67 -56 -126 1 -83 62 -138 145 -131 125 11
169 161 72 246 -29 25 -44 31 -83 31 -30 0 -58 -8 -78 -20z"/>
<path d="M1851 3912 c-5 -10 -32 -72 -59 -138 -27 -65 -104 -245 -172 -399
-67 -154 -138 -316 -157 -359 -18 -44 -32 -85 -29 -93 4 -10 34 -13 126 -13
138 0 125 -9 174 116 l31 79 205 3 205 2 34 -89 c18 -50 39 -95 46 -101 8 -7
92 -9 246 -8 l234 3 5 215 c5 202 6 217 28 252 24 38 91 78 131 78 39 0 90
-31 113 -69 22 -34 23 -49 28 -256 l5 -220 115 0 115 0 0 270 0 270 -28 57
c-53 107 -145 167 -259 168 -82 0 -108 -9 -180 -66 l-57 -44 -3 47 -3 48 -115
0 -115 0 -5 -345 -5 -345 -31 60 c-48 93 -234 524 -336 780 l-44 110 -117 3
c-104 2 -117 1 -126 -16z m185 -464 c30 -70 54 -129 54 -132 0 -3 -54 -6 -120
-6 -66 0 -120 3 -120 6 0 3 21 54 46 113 26 58 54 122 62 141 10 23 17 30 20
20 2 -8 29 -72 58 -142z"/>
<path d="M5905 3918 c-3 -7 -4 -236 -3 -508 l3 -495 115 0 115 0 3 198 2 197
185 0 185 0 0 -184 c0 -101 3 -191 6 -200 5 -13 25 -16 113 -16 58 0 112 4
119 8 10 7 12 115 10 508 l-3 499 -114 3 c-85 2 -117 -1 -123 -10 -4 -7 -8
-95 -8 -195 l0 -183 -187 0 -186 0 6 183 c4 133 3 187 -5 195 -17 17 -227 16
-233 0z"/>
<path d="M4203 3680 c-56 -12 -119 -44 -173 -90 l-45 -37 3 47 c5 66 -5 71
-129 68 l-104 -3 0 -375 0 -375 109 -3 c81 -2 112 1 118 10 4 7 8 102 8 211 0
211 4 230 52 273 84 77 208 69 270 -18 22 -32 23 -41 26 -251 3 -202 4 -219
22 -225 10 -4 63 -5 117 -2 l98 5 0 280 c0 264 -1 283 -21 326 -29 62 -77 114
-129 139 -50 24 -157 34 -222 20z"/>
<path d="M4969 3667 c-101 -29 -201 -115 -248 -216 -23 -49 -26 -68 -26 -161
0 -97 2 -110 32 -172 38 -82 95 -138 181 -180 63 -31 73 -33 177 -33 103 0
114 2 177 32 72 34 141 81 136 93 -2 4 -31 38 -66 75 l-63 67 -27 -25 c-28
-27 -99 -57 -135 -57 -43 0 -102 26 -139 61 -21 20 -38 41 -38 47 0 9 70 12
261 12 l261 0 -4 98 c-3 80 -8 107 -30 154 -34 74 -113 152 -186 186 -68 31
-189 40 -263 19z m181 -205 c25 -19 70 -78 70 -93 0 -9 -281 -17 -292 -9 -4 3
4 24 17 47 46 76 141 102 205 55z"/>
<path d="M3395 3658 c-3 -7 -4 -177 -3 -378 l3 -365 110 0 110 0 0 375 0 375
-108 3 c-80 2 -109 -1 -112 -10z"/>
<path d="M6892 3658 c-15 -15 -16 -400 -2 -501 17 -116 66 -183 170 -231 109
-51 230 -29 317 56 l42 41 6 -26 c4 -14 4 -31 0 -36 -3 -6 -1 -20 5 -31 10
-19 19 -20 118 -18 l107 3 0 375 0 375 -115 0 -115 0 -5 -227 c-5 -209 -7
-229 -26 -255 -32 -44 -81 -65 -142 -60 -46 3 -59 9 -90 41 l-37 36 -3 227
c-2 163 -7 230 -15 235 -20 13 -202 9 -215 -4z"/>
<path d="M3333 2485 c-3 -9 13 -44 40 -84 38 -57 46 -79 49 -123 3 -49 5 -53
28 -53 23 0 25 4 30 61 4 55 10 68 53 123 40 51 47 64 37 76 -21 25 -38 17
-77 -35 -20 -27 -40 -50 -43 -50 -3 0 -16 17 -30 37 -44 65 -74 81 -87 48z"/>
<path d="M3735 2491 c-34 -14 -74 -62 -86 -102 -10 -33 -9 -43 12 -86 29 -59
74 -87 139 -87 143 0 191 189 67 264 -33 21 -96 25 -132 11z m116 -80 c35 -36
37 -70 5 -107 -18 -21 -32 -28 -61 -28 -74 0 -112 88 -60 139 34 35 78 33 116
-4z"/>
<path d="M4049 2478 c-15 -29 -6 -166 14 -205 20 -38 84 -68 129 -59 79 15
108 64 108 184 0 60 -4 83 -16 93 -11 9 -20 10 -32 2 -13 -8 -17 -27 -18 -81
-1 -40 -5 -83 -8 -97 -8 -30 -40 -49 -72 -41 -36 9 -54 55 -54 139 0 59 -3 76
-16 81 -22 8 -22 8 -35 -16z"/>
<path d="M4579 2374 c-32 -69 -59 -129 -59 -133 0 -5 7 -14 15 -21 12 -10 20
-7 44 19 27 28 34 31 93 31 59 0 66 -2 76 -25 12 -27 49 -34 58 -12 5 13 -61
171 -98 233 -14 24 -27 34 -45 34 -21 0 -31 -15 -84 -126z m112 1 c9 -24 14
-46 11 -49 -7 -8 -67 -8 -74 0 -7 6 35 104 42 98 2 -3 12 -25 21 -49z"/>
<path d="M4916 2488 c-3 -7 -7 -65 -10 -129 -6 -120 -1 -139 35 -139 25 0 31
26 23 97 -4 37 -3 63 3 63 5 0 38 -36 73 -80 69 -85 85 -97 106 -79 21 17 20
267 -1 275 -31 12 -45 -15 -45 -90 l0 -71 -43 45 c-23 25 -57 62 -75 83 -33
37 -59 47 -66 25z"/>
<path d="M5378 2492 c-105 -3 -100 4 -96 -157 l3 -110 100 0 100 0 0 25 c0 24
-3 25 -67 28 -59 3 -68 5 -68 22 0 16 9 19 53 22 48 3 52 5 55 31 3 27 2 27
-52 27 -56 0 -56 0 -56 30 l0 30 70 0 c67 0 70 1 70 24 0 30 -6 32 -112 28z"/>
<path d="M5752 2488 c-8 -8 -12 -51 -12 -135 0 -106 2 -123 18 -131 31 -17 42
-3 42 54 l0 54 65 0 65 0 0 -54 c0 -57 18 -78 46 -55 21 17 20 252 -1 269 -26
21 -45 -5 -45 -62 l0 -49 -62 3 -63 3 -5 55 c-5 57 -22 74 -48 48z"/>
<path d="M6429 2490 c-6 -4 -9 -58 -7 -136 l3 -129 25 0 c21 0 26 6 30 35 7
51 37 52 78 0 22 -27 41 -40 57 -40 31 0 32 22 3 62 -19 27 -19 31 -5 39 8 5
21 24 27 43 13 40 -6 98 -37 114 -21 11 -159 21 -174 12z m145 -66 c35 -34 11
-64 -51 -64 l-43 0 0 40 c0 40 0 40 39 40 23 0 46 -7 55 -16z"/>
<path d="M6114 2477 c-2 -7 -3 -67 -2 -133 l3 -119 100 0 100 0 0 25 c0 24 -3
25 -72 28 -71 3 -73 4 -73 28 0 26 0 26 62 19 55 -7 60 -6 55 10 -4 9 -7 23
-7 30 0 10 -16 15 -52 17 -49 3 -53 5 -56 31 l-3 27 70 0 c69 0 84 8 73 38 -6
18 -191 17 -198 -1z"/>
<path d="M6764 2477 c-2 -7 -3 -67 -2 -133 l3 -119 101 -3 c84 -2 103 0 107
13 14 35 -3 45 -79 45 -72 0 -74 1 -74 25 0 24 3 25 61 25 57 0 60 1 57 23 -3
19 -10 22 -60 25 -57 3 -58 4 -58 32 l0 30 76 0 c72 0 75 1 72 23 -3 21 -8 22
-101 25 -74 2 -99 0 -103 -11z"/>
</g>
</svg>
