<?xml version="1.0" standalone="no"?>
<!DOCTYPE svg PUBLIC "-//W3C//DTD SVG 20010904//EN"
 "http://www.w3.org/TR/2001/REC-SVG-20010904/DTD/svg10.dtd">
<svg version="1.0" xmlns="http://www.w3.org/2000/svg"
 width="1024.000000pt" height="1024.000000pt" viewBox="0 0 1024.000000 1024.000000"
 preserveAspectRatio="xMidYMid meet">

<g transform="translate(0.000000,1024.000000) scale(0.100000,-0.100000)"
fill="#FFFFFF" stroke="none">
<path d="M5120 8380 c-17 -17 -20 -33 -20 -100 l0 -80 -39 0 c-31 0 -44 -6
-60 -26 -12 -15 -21 -34 -21 -44 0 -10 9 -29 21 -44 16 -20 29 -26 60 -26 l39
0 0 -60 0 -60 -34 0 c-76 0 -108 -79 -51 -127 20 -17 37 -24 57 -21 l28 5 0
-64 0 -63 -39 0 c-58 0 -93 -46 -76 -99 8 -27 60 -54 91 -48 23 4 24 2 24 -59
l0 -64 -33 0 c-66 0 -101 -54 -72 -110 15 -30 46 -44 81 -38 14 2 20 -4 22
-22 2 -22 -14 -40 -113 -120 -209 -171 -377 -270 -580 -343 -173 -62 -221 -70
-422 -71 -171 -1 -183 0 -205 20 -58 54 -115 59 -159 15 -66 -66 -21 -133 151
-228 160 -88 411 -172 615 -206 l80 -13 3 -198 c1 -127 -1 -203 -8 -211 -22
-27 -221 -87 -365 -110 -50 -8 -155 -15 -236 -15 l-147 0 -48 40 c-55 45 -93
57 -133 40 -44 -18 -69 -79 -51 -125 5 -13 38 -44 73 -69 159 -114 431 -201
740 -238 l107 -12 0 -243 0 -242 -27 -15 c-43 -21 -211 -72 -283 -85 -111 -20
-309 -38 -445 -40 -129 -1 -130 -1 -175 29 -58 38 -110 40 -145 5 -35 -34 -33
-76 5 -119 61 -69 286 -162 495 -205 108 -22 344 -51 412 -51 79 0 73 25 73
-335 l0 -323 -27 -6 c-16 -3 -73 -10 -128 -16 -424 -46 -802 -118 -840 -160
-9 -10 -19 -36 -22 -57 -4 -32 0 -45 22 -71 31 -37 50 -39 157 -17 304 65 712
116 1074 135 252 13 1021 13 1249 0 309 -18 612 -53 840 -96 322 -61 347 -64
376 -41 45 34 48 106 6 144 -43 40 -447 120 -812 161 l-160 17 0 330 0 330 50
3 c386 20 769 125 905 248 32 29 40 43 40 71 0 81 -89 109 -171 53 -42 -29
-48 -30 -159 -30 -147 0 -429 33 -545 64 -94 25 -191 60 -212 78 -14 11 -18
273 -7 409 l7 74 127 18 c143 20 347 71 464 116 106 41 262 129 292 164 49 59
15 142 -61 148 -41 3 -54 -2 -106 -41 l-53 -40 -137 0 c-169 0 -323 25 -480
77 l-114 38 0 210 0 210 126 26 c178 38 264 64 401 119 122 50 271 140 308
187 27 35 25 75 -6 112 -22 26 -33 31 -70 31 -35 0 -51 -6 -80 -32 l-37 -33
-132 -3 c-228 -7 -424 38 -637 146 -222 113 -509 327 -516 385 -3 25 -1 27 33
27 38 0 85 35 85 64 0 47 -43 86 -95 86 -24 0 -25 3 -25 60 l0 60 34 0 c48 0
80 29 80 73 0 50 -27 77 -76 77 l-38 0 0 60 c0 56 2 60 23 60 43 0 68 13 83
42 28 54 -6 108 -68 108 l-38 0 0 60 0 60 38 0 c47 0 75 27 75 70 0 43 -28 70
-75 70 l-38 0 0 84 c0 76 -2 86 -22 100 -31 22 -74 20 -98 -4z m-214 -2046
c61 -41 77 -153 31 -222 -42 -64 -134 -92 -183 -57 -30 20 -54 76 -54 122 0
50 44 139 78 158 36 19 97 19 128 -1z m661 -4 c35 -21 68 -76 78 -132 5 -26 1
-48 -12 -79 -25 -57 -43 -70 -98 -77 -80 -9 -149 58 -162 159 -7 46 26 121 60
137 36 17 99 14 134 -8z m-670 -958 c131 -93 41 -344 -118 -329 -89 8 -142 70
-141 164 0 65 35 131 90 169 31 21 46 25 88 21 31 -2 63 -12 81 -25z m701 14
c38 -20 78 -65 96 -108 58 -138 -59 -277 -191 -227 -90 34 -146 157 -112 246
12 33 56 82 84 93 32 14 94 11 123 -4z m-780 -1030 c35 -19 78 -64 90 -97 13
-33 27 -465 16 -472 -5 -2 -88 -6 -184 -8 l-175 -4 -3 208 c-3 223 -1 233 60
320 41 58 137 84 196 53z m857 -11 c25 -14 56 -46 76 -77 l34 -52 0 -221 0
-220 -27 1 c-16 1 -98 2 -183 3 l-155 1 0 225 c0 202 2 230 19 263 51 98 147
130 236 77z"/>
<path d="M7453 3236 l-28 -24 0 -481 1 -481 26 -26 c46 -46 148 -24 156 35 4
27 8 26 44 -4 61 -52 185 -58 285 -15 62 26 135 100 166 168 18 38 22 65 22
147 0 85 -3 106 -23 143 -36 68 -98 128 -165 162 -81 40 -176 42 -255 5 -30
-14 -56 -25 -58 -25 -2 0 -4 81 -4 179 0 99 -3 187 -6 196 -18 46 -116 59
-161 21z m416 -554 c88 -65 96 -178 17 -251 -39 -37 -128 -41 -176 -9 -111 75
-106 206 10 266 52 27 108 25 149 -6z"/>
<path d="M3842 3155 c-39 -17 -66 -72 -57 -115 19 -86 140 -113 194 -44 40 51
17 134 -44 160 -42 17 -51 17 -93 -1z"/>
<path d="M5834 3158 c-12 -5 -27 -21 -33 -34 -16 -36 -15 -847 1 -877 18 -35
40 -46 86 -47 35 0 49 6 73 29 l29 29 0 156 0 156 175 0 175 0 0 -156 0 -156
29 -29 c39 -38 97 -40 138 -5 l28 24 3 436 3 436 -25 25 c-32 32 -111 35 -147
6 -23 -19 -24 -24 -27 -200 l-3 -181 -175 0 -174 0 0 171 0 171 -29 29 c-32
31 -84 38 -127 17z"/>
<path d="M2523 3140 c-18 -11 -43 -40 -56 -67 -50 -98 -300 -740 -305 -781 -7
-59 23 -92 83 -92 59 0 88 27 121 111 15 38 30 72 33 73 3 2 84 6 180 7 l174
4 34 -80 c40 -96 60 -115 120 -115 36 0 50 6 74 29 16 16 29 37 29 47 0 30
-289 768 -322 822 -37 61 -106 78 -165 42z m67 -291 c0 -6 23 -69 51 -140 28
-71 48 -133 44 -139 -9 -14 -215 -13 -215 1 0 20 105 289 113 289 4 0 7 -5 7
-11z"/>
<path d="M3111 2874 l-31 -26 0 -299 0 -300 25 -24 c36 -37 97 -35 136 4 l29
29 0 179 c0 201 8 228 74 259 40 20 74 14 113 -20 l28 -24 5 -202 5 -202 28
-24 c39 -33 99 -33 132 1 l25 24 0 233 0 234 -33 54 c-59 100 -166 147 -275
120 -26 -6 -58 -19 -71 -29 -25 -19 -25 -19 -52 10 -36 39 -94 40 -138 3z"/>
<path d="M3844 2886 c-17 -8 -35 -22 -39 -32 -4 -11 -10 -148 -13 -306 l-5
-287 31 -31 c42 -41 92 -42 133 -1 l29 29 0 292 c0 177 -4 299 -10 310 -6 11
-27 24 -48 30 -45 12 -40 12 -78 -4z"/>
<path d="M4115 2875 l-25 -24 0 -285 c0 -173 4 -295 10 -312 15 -38 39 -53 83
-54 93 0 107 34 107 263 0 161 2 176 21 201 16 20 29 26 58 26 68 0 71 -10 71
-234 l0 -198 29 -29 c41 -40 91 -40 132 0 l29 29 0 197 c0 195 0 196 25 220
32 33 70 32 100 -1 25 -27 25 -29 25 -218 0 -164 2 -195 17 -216 9 -14 22 -28
27 -32 21 -15 91 -8 116 12 l25 19 3 228 c2 141 -1 242 -7 264 -27 91 -125
169 -212 169 -46 0 -117 -25 -145 -51 -19 -18 -22 -18 -34 -4 -54 65 -179 71
-263 13 -24 -17 -28 -18 -33 -3 -18 47 -120 60 -159 20z"/>
<path d="M5313 2889 c-106 -20 -186 -82 -239 -186 -39 -78 -45 -193 -14 -275
24 -66 94 -148 154 -182 125 -72 299 -51 395 48 l33 34 -42 39 c-63 56 -68 58
-109 35 -77 -43 -159 -38 -221 15 -60 50 -50 53 189 53 l219 0 7 31 c21 93
-31 247 -103 310 -72 64 -180 95 -269 78z m113 -185 c30 -14 74 -61 74 -78 0
-3 -58 -6 -130 -6 -143 0 -152 5 -102 53 50 48 101 58 158 31z"/>
<path d="M6691 2874 c-20 -25 -21 -39 -21 -247 0 -203 2 -224 21 -264 30 -63
110 -130 178 -150 71 -20 163 -7 222 31 29 19 39 22 39 12 0 -26 50 -56 92
-56 28 0 46 7 63 25 l25 24 0 305 0 305 -26 20 c-39 31 -107 29 -139 -4 -25
-24 -25 -27 -25 -195 0 -235 -17 -271 -133 -278 -59 -4 -64 -2 -92 28 l-30 31
-5 201 c-5 195 -6 200 -29 219 -16 13 -39 19 -71 19 -41 0 -52 -4 -69 -26z"/>
</g>
</svg>
