<?xml version="1.0" standalone="no"?>
<!DOCTYPE svg PUBLIC "-//W3C//DTD SVG 20010904//EN"
 "http://www.w3.org/TR/2001/REC-SVG-20010904/DTD/svg10.dtd">
<svg version="1.0" xmlns="http://www.w3.org/2000/svg"
 width="1024.000000pt" height="1024.000000pt" viewBox="0 0 1024.000000 1024.000000"
 preserveAspectRatio="xMidYMid meet">

<g transform="translate(0.000000,1024.000000) scale(0.100000,-0.100000)"
fill="#000000" stroke="none">
<path d="M4900 8490 c-388 -47 -699 -153 -1039 -355 -256 -152 -494 -369 -688
-627 -324 -432 -483 -911 -484 -1458 -1 -405 75 -728 258 -1095 107 -213 249
-410 431 -598 389 -400 846 -639 1407 -738 162 -28 481 -31 668 -5 318 43 659
161 912 316 177 108 370 265 529 431 240 250 396 493 517 803 194 499 218
1074 64 1582 -118 387 -313 719 -592 1005 -223 228 -402 359 -688 499 -239
117 -454 187 -701 226 -117 18 -484 27 -594 14z m120 -441 l0 -221 34 -34 c40
-40 92 -46 142 -15 51 31 57 67 52 293 l-4 199 65 -6 c276 -27 520 -95 753
-210 70 -35 159 -84 198 -109 l71 -46 -42 -53 c-23 -28 -64 -82 -93 -119 -28
-37 -56 -67 -62 -67 -6 -1 -46 18 -90 42 -169 91 -398 177 -471 177 l-25 0 7
-92 c8 -106 56 -362 84 -446 11 -31 18 -58 16 -61 -7 -7 -103 149 -158 256
-30 60 -74 155 -98 213 -23 58 -44 107 -46 109 -9 12 -97 -91 -128 -151 -50
-94 -74 -167 -90 -278 -15 -99 -21 -430 -7 -430 4 0 6 -19 4 -43 -3 -37 -1
-43 17 -44 12 -1 21 3 21 8 0 6 -4 7 -10 4 -5 -3 -10 -4 -10 -1 0 2 -3 13 -6
23 -4 14 -4 15 4 4 5 -7 15 -10 22 -6 9 6 9 10 -1 17 -11 8 -11 9 1 5 8 -2 14
-11 12 -20 -1 -8 2 -18 8 -22 8 -5 7 -12 -2 -23 -10 -12 -10 -14 0 -8 9 5 12
-3 13 -31 0 -21 6 -80 13 -130 6 -51 10 -93 9 -93 -2 0 -22 38 -46 84 -23 45
-77 141 -120 212 -108 179 -228 427 -287 594 -50 142 -90 289 -90 330 0 20 -3
22 -37 15 -104 -19 -323 -111 -455 -191 l-59 -36 -17 23 c-9 13 -54 70 -99
127 l-83 103 63 40 c74 48 294 156 392 192 178 66 378 114 535 127 47 4 88 8
93 9 4 0 7 -98 7 -220z m-1193 -379 c44 -52 88 -108 98 -123 l18 -28 -87 -81
c-92 -85 -200 -212 -242 -284 l-26 -43 -136 91 c-75 50 -139 92 -141 94 -5 4
155 201 223 274 62 66 208 202 211 198 1 -2 38 -46 82 -98z m2924 -118 c56
-62 203 -252 197 -256 -60 -45 -262 -176 -268 -174 -4 2 -36 41 -71 88 -35 47
-115 138 -177 202 l-114 117 102 120 102 121 89 -81 c49 -45 112 -106 140
-137z m-2327 -142 c17 -109 52 -234 101 -364 19 -50 33 -92 32 -93 -2 -1 -37
9 -78 22 -90 28 -261 55 -353 55 -36 0 -66 3 -66 7 0 10 96 188 148 273 59 98
118 186 156 232 l31 37 7 -37 c4 -20 13 -80 22 -132z m1391 -26 c39 -66 173
-230 244 -297 33 -32 61 -60 61 -63 0 -2 -17 -4 -37 -4 -21 0 -78 -8 -126 -18
-61 -13 -90 -15 -93 -8 -10 29 -48 203 -65 301 -27 156 -26 161 16 89z m570
-284 c10 -11 16 -20 13 -20 -3 0 -13 9 -23 20 -10 11 -16 20 -13 20 3 0 13 -9
23 -20z m-2521 -38 c-5 -32 -11 -41 -30 -45 -13 -2 -24 -3 -24 -1 0 7 55 93
57 90 2 -2 1 -22 -3 -44z m-467 -103 c29 -19 53 -38 53 -43 0 -4 -18 -47 -39
-95 -82 -182 -150 -472 -151 -638 l0 -63 -165 0 -165 0 0 45 c0 79 20 235 46
355 34 156 84 302 154 448 l59 123 78 -49 c43 -26 102 -64 130 -83z m3731 13
c115 -243 182 -482 197 -712 3 -47 8 -97 10 -112 l5 -28 -164 0 -163 0 -11
123 c-21 212 -69 402 -148 580 -24 55 -43 101 -42 102 2 1 24 13 49 28 26 14
79 49 120 77 40 27 78 50 84 50 7 0 35 -48 63 -108z m-1948 35 c0 -2 -10 -12
-22 -23 l-23 -19 19 23 c18 21 26 27 26 19z m-983 -66 c101 -21 196 -55 344
-124 79 -37 100 -51 119 -83 44 -73 183 -259 266 -356 99 -114 259 -266 366
-346 64 -48 260 -172 271 -172 2 0 -9 48 -25 108 -65 250 -126 571 -148 793
-16 154 -13 164 27 102 18 -28 71 -92 117 -144 l85 -93 -33 -36 c-78 -87 -125
-180 -58 -118 36 34 125 88 146 88 12 0 8 -11 -18 -48 -33 -45 -106 -210 -106
-238 0 -7 18 6 40 29 l40 42 -16 -45 c-9 -25 -18 -83 -20 -130 l-4 -85 18 60
c21 70 41 109 93 187 55 81 61 79 27 -9 -80 -205 -32 -419 121 -539 77 -60
133 -78 235 -72 96 5 175 40 245 108 107 104 150 323 97 495 -20 65 -91 154
-169 211 -34 25 -63 47 -65 49 -9 8 108 -19 149 -36 75 -29 122 -65 167 -125
50 -67 76 -134 92 -238 15 -88 21 -86 51 19 l18 60 0 -51 c2 -96 -39 -273 -81
-358 l-20 -39 55 47 c31 26 81 84 111 129 62 89 67 85 42 -34 -17 -78 -41
-128 -107 -225 -47 -68 -175 -200 -249 -257 l-35 -27 45 1 c25 0 90 15 145 33
55 19 102 32 104 30 8 -7 -61 -142 -115 -229 -103 -166 -302 -386 -459 -510
-225 -177 -549 -352 -839 -455 l-120 -42 -75 22 c-259 75 -597 250 -840 435
-195 148 -322 275 -457 457 -64 86 -194 302 -194 321 0 3 35 -6 78 -20 136
-43 314 -68 335 -46 4 3 -13 18 -37 32 -175 102 -374 327 -429 486 -36 104
-33 104 59 7 75 -80 159 -152 178 -152 4 0 -7 26 -23 58 -57 113 -97 292 -81
367 5 28 8 33 9 14 0 -14 11 -54 23 -90 17 -49 23 -58 26 -39 10 86 36 183 62
236 54 111 179 197 305 210 l60 6 -51 -30 c-60 -36 -134 -115 -163 -175 -109
-227 -32 -510 171 -623 50 -27 60 -29 163 -29 96 0 116 3 159 24 68 34 152
119 182 186 54 118 54 298 0 406 -14 27 -24 49 -22 49 2 0 23 -26 48 -57 50
-64 71 -102 99 -177 l19 -51 -5 82 c-3 45 -12 101 -21 125 l-15 43 42 -40 c37
-36 40 -37 34 -15 -19 63 -84 170 -144 234 l-36 39 53 -29 c30 -16 74 -47 99
-68 l45 -40 -25 50 c-52 103 -177 197 -332 250 -70 25 -98 29 -225 32 -80 2
-171 -1 -203 -6 l-59 -9 6 28 c3 16 20 65 37 109 32 79 32 80 68 80 20 0 77
-9 128 -19z m2104 -27 c75 -49 225 -123 298 -147 43 -14 45 -16 62 -78 10 -35
16 -65 15 -67 -2 -1 -36 13 -77 31 -92 42 -214 82 -296 98 -65 12 -333 8 -365
-6 -14 -5 -18 -2 -18 14 0 24 22 36 148 87 l87 35 -75 -5 c-41 -3 -99 -12
-127 -20 -50 -14 -72 -8 -58 14 9 14 185 68 257 78 35 5 66 10 70 11 4 0 39
-20 79 -45z m-2449 -76 c-2 -62 -7 -116 -10 -119 -4 -3 -29 -14 -57 -24 -27
-9 -73 -30 -102 -46 l-52 -29 18 43 c29 68 123 261 134 275 5 6 24 12 41 12
l31 0 -3 -112z m579 -431 c56 -38 82 -84 76 -140 -5 -57 -30 -95 -78 -119 -74
-38 -166 -12 -206 58 -28 48 -29 93 -3 143 39 78 140 106 211 58z m1810 0 c49
-33 79 -82 79 -131 0 -91 -59 -146 -156 -146 -142 0 -208 171 -102 266 30 28
43 32 99 33 32 1 56 -6 80 -22z m-2193 -159 c21 -21 15 -68 -10 -77 -45 -17
-87 39 -58 75 15 17 52 18 68 2z m1812 -7 c14 -27 13 -37 -6 -55 -37 -38 -90
5 -65 53 15 27 57 28 71 2z m65 -196 c48 -74 73 -88 146 -88 73 0 104 19 139
89 l26 49 68 -3 68 -3 -7 -42 c-10 -60 -51 -146 -88 -185 -18 -19 -54 -46 -82
-60 -68 -36 -188 -38 -251 -5 -84 44 -174 179 -174 258 0 20 6 25 38 30 20 4
42 8 47 10 25 9 35 1 70 -50z m-1365 -7 c-15 -106 -72 -188 -164 -236 -68 -35
-178 -37 -247 -5 -88 40 -161 133 -175 225 -7 39 -6 42 9 29 10 -7 17 -11 17
-8 0 3 15 0 33 -7 17 -8 46 -12 63 -9 24 4 35 0 50 -19 26 -34 50 -44 112 -51
82 -9 144 24 157 84 4 16 11 29 16 29 6 0 7 5 4 10 -4 6 19 10 63 10 l69 0 -7
-52z m2723 -157 l49 -1 -7 -62 c-26 -246 -89 -472 -191 -688 l-56 -118 -137
86 c-75 47 -138 87 -140 89 -2 2 14 42 37 90 73 153 162 464 162 563 0 42 22
49 135 45 55 -1 122 -3 148 -4z m-4005 -129 c25 -143 106 -393 158 -492 19
-35 31 -67 26 -71 -7 -6 -236 -159 -260 -173 -18 -11 -111 188 -167 357 -43
129 -90 335 -102 450 l-6 57 164 0 164 0 23 -128z m403 -839 c40 -49 115 -130
166 -181 55 -55 90 -99 86 -105 -18 -32 -198 -257 -204 -257 -39 0 -418 409
-407 440 3 9 267 188 279 189 4 1 40 -38 80 -86z m3131 -5 c76 -50 138 -94
138 -98 0 -11 -182 -236 -238 -293 -32 -32 -84 -82 -116 -110 -59 -51 -59 -51
-73 -30 -8 12 -57 75 -108 140 l-94 118 104 102 c57 56 134 138 170 183 37 44
70 80 73 80 4 0 68 -41 144 -92z m-2593 -452 c47 -29 96 -59 109 -65 20 -11
22 -19 22 -99 l0 -87 -116 -48 c-64 -26 -122 -47 -128 -45 -6 2 -52 28 -102
58 l-90 54 105 142 c58 78 108 143 110 143 2 1 43 -23 90 -53z m2028 -94 l110
-138 -88 -57 -88 -57 -83 33 c-46 19 -107 42 -136 51 l-53 18 2 80 c2 78 3 81
31 97 17 9 64 37 106 63 43 26 80 47 83 48 3 0 55 -62 116 -138z"/>
<path d="M4325 6832 c72 -28 146 -53 165 -56 l35 -7 -45 28 c-75 48 -151 75
-220 80 l-65 4 130 -49z"/>
<path d="M3887 5744 c5 -14 2 -16 -23 -10 -28 6 -27 4 17 -37 26 -24 75 -56
108 -73 48 -22 61 -33 57 -46 -5 -20 10 -23 49 -8 38 15 165 1 158 -16 -7 -19
9 -18 95 6 110 31 248 104 174 93 l-27 -4 23 19 c12 11 22 22 22 25 0 3 -48
-8 -107 -24 -182 -49 -296 -37 -450 46 -90 49 -106 54 -96 29z"/>
<path d="M6340 5715 c-155 -82 -303 -95 -459 -41 -41 14 -77 26 -79 26 -3 0 5
-11 18 -25 l23 -25 -24 0 c-53 -1 92 -67 249 -115 21 -6 23 -4 18 13 -6 18 -1
20 71 27 49 4 89 2 106 -4 16 -6 36 -11 45 -11 15 0 15 1 0 16 -15 16 -10 21
70 71 104 65 113 73 84 73 -12 0 -22 5 -22 10 0 6 5 10 10 10 6 0 10 5 10 10
0 19 -36 9 -120 -35z"/>
<path d="M5087 5596 l-48 -99 39 -46 c22 -25 43 -45 48 -44 17 4 26 113 18
201 l-9 87 -48 -99z"/>
<path d="M5030 4979 c-30 -11 -66 -28 -80 -38 -24 -19 -24 -20 -6 -39 18 -20
18 -20 74 -1 76 26 178 26 262 0 80 -26 75 -26 88 3 9 21 8 27 -13 40 -83 54
-227 70 -325 35z"/>
<path d="M2838 8146 c-9 -22 -5 -31 42 -85 58 -67 73 -76 101 -61 34 19 23 56
-34 115 -59 61 -91 70 -109 31z"/>
<path d="M7309 8113 c-47 -45 -59 -62 -57 -82 2 -20 10 -27 29 -29 21 -2 39 9
83 52 59 57 70 88 37 106 -28 15 -27 15 -92 -47z m91 27 c0 -5 0 -13 0 -17 0
-5 -6 -8 -12 -8 -7 -1 -12 -7 -10 -15 1 -10 -2 -9 -12 3 -8 11 -12 25 -9 33 6
16 43 19 43 4z"/>
<path d="M7366 8132 c-2 -4 4 -8 14 -8 10 0 16 4 14 8 -3 4 -9 8 -14 8 -5 0
-11 -4 -14 -8z"/>
<path d="M2790 7811 c-14 -27 -15 -27 31 -76 44 -48 85 -59 108 -31 17 20 2
45 -51 90 -47 40 -72 45 -88 17z"/>
<path d="M7367 7787 c-48 -43 -57 -63 -35 -85 23 -23 57 -13 98 28 45 45 48
59 22 83 -26 23 -31 22 -85 -26z"/>
<path d="M2305 7156 c-9 -14 -15 -37 -13 -53 3 -24 19 -37 108 -90 110 -66
146 -75 173 -45 40 44 12 80 -132 165 -89 53 -114 57 -136 23z"/>
<path d="M7799 7124 c-52 -32 -102 -64 -111 -72 -37 -32 -13 -102 35 -102 23
0 189 91 225 123 12 11 22 31 22 43 0 22 -42 64 -65 64 -6 0 -54 -25 -106 -56z"/>
<path d="M2285 5865 c-98 -34 -136 -159 -75 -245 30 -42 76 -64 136 -64 87 0
154 67 154 154 0 110 -111 190 -215 155z"/>
<path d="M7843 5850 c-118 -71 -95 -254 35 -290 59 -15 108 -3 153 37 63 57
74 128 29 201 -43 70 -147 95 -217 52z"/>
<path d="M2479 4900 c-64 -33 -78 -61 -48 -91 25 -25 34 -24 103 14 69 37 86
58 70 85 -17 27 -64 24 -125 -8z"/>
<path d="M7662 4918 c-25 -25 -14 -56 31 -82 75 -44 105 -51 128 -30 33 30 20
56 -46 91 -64 35 -94 40 -113 21z"/>
<path d="M2828 4275 c-62 -49 -68 -63 -40 -88 28 -25 51 -21 110 19 55 38 73
73 52 99 -22 27 -62 17 -122 -30z"/>
<path d="M7310 4301 c-16 -32 -13 -39 48 -86 62 -49 90 -55 115 -27 25 27 21
37 -25 75 -76 61 -119 73 -138 38z"/>
<path d="M3432 3903 c-11 -10 -57 -60 -101 -112 -85 -99 -98 -133 -63 -163 50
-44 76 -29 191 106 81 95 90 129 45 165 -32 26 -46 26 -72 4z"/>
<path d="M6769 3908 c-23 -8 -49 -44 -49 -68 0 -14 179 -219 202 -231 29 -15
73 6 88 42 16 36 9 47 -101 163 -94 100 -104 107 -140 94z"/>
<path d="M7460 3349 c-19 -4 -45 -19 -57 -34 l-23 -26 0 -499 c0 -350 3 -506
11 -524 20 -43 49 -48 300 -44 231 3 235 3 285 30 58 30 119 94 141 146 8 19
14 64 14 100 0 77 -27 140 -76 179 l-34 27 32 44 c28 39 32 52 32 111 -1 75
-23 128 -77 181 -59 59 -106 74 -260 78 l-138 4 0 87 c0 79 -2 90 -24 110 -30
28 -80 40 -126 30z m385 -464 c32 -31 32 -58 -2 -85 -24 -18 -38 -20 -127 -18
l-101 3 -3 63 -3 62 106 0 c99 0 107 -2 130 -25z m37 -322 c24 -22 24 -77 -2
-103 -27 -27 -51 -31 -165 -28 l-100 3 -3 59 c-2 32 -1 65 2 72 9 22 243 20
268 -3z"/>
<path d="M2393 3269 c-18 -5 -40 -20 -49 -34 -8 -13 -52 -124 -96 -247 -44
-123 -111 -311 -150 -418 -94 -262 -94 -264 -75 -305 30 -64 146 -72 189 -14
11 14 30 54 42 90 19 52 28 64 45 63 12 0 85 -1 164 -2 l143 -2 18 -52 c37
-106 70 -138 141 -138 53 0 84 17 102 55 16 34 16 37 -19 137 -286 819 -290
829 -319 850 -31 23 -92 31 -136 17z m105 -536 l40 -123 -90 0 c-67 0 -89 3
-86 13 17 65 84 245 89 239 3 -4 24 -62 47 -129z"/>
<path d="M5743 3269 c-66 -19 -65 -8 -63 -525 0 -286 5 -474 11 -485 13 -26
62 -49 101 -49 26 0 89 27 100 42 1 2 4 84 7 183 l6 180 153 3 153 3 -2 -169
c-2 -144 0 -171 15 -194 39 -59 139 -64 189 -8 l27 30 0 464 c0 452 0 464 -21
489 -37 49 -126 57 -179 17 -25 -19 -25 -21 -30 -212 l-5 -193 -152 -3 -153
-3 0 189 c0 183 -1 189 -22 210 -24 21 -70 43 -91 41 -7 0 -27 -5 -44 -10z"/>
<path d="M2953 3106 c-17 -8 -36 -23 -42 -35 -7 -13 -11 -149 -11 -408 0 -353
2 -390 18 -409 38 -48 113 -58 170 -24 17 11 33 21 34 22 1 2 4 100 7 218 l6
215 178 -222 c107 -135 190 -229 209 -239 46 -24 106 -13 141 26 l27 30 0 391
0 390 -23 23 c-44 43 -152 43 -189 -1 -9 -12 -14 -73 -18 -232 l-5 -216 -75
100 c-96 129 -261 335 -288 359 -28 24 -98 30 -139 12z"/>
<path d="M3825 3111 c-11 -5 -29 -19 -40 -31 -19 -22 -20 -34 -17 -414 2 -321
6 -395 17 -413 31 -47 142 -55 181 -12 17 19 19 44 24 250 l5 229 84 -92 c79
-88 125 -128 145 -128 4 0 55 48 112 108 l104 107 0 -218 c0 -130 4 -226 10
-238 35 -64 166 -62 202 4 8 16 11 125 11 410 -1 434 2 416 -74 438 -66 20
-85 8 -234 -147 l-141 -145 -124 137 c-69 75 -137 142 -152 150 -30 15 -82 17
-113 5z"/>
<path d="M6574 3101 c-18 -11 -36 -25 -40 -33 -5 -7 -7 -141 -5 -298 3 -322 9
-350 81 -433 153 -174 423 -184 583 -22 26 27 60 74 75 104 l27 56 3 289 c3
286 3 288 -19 312 -46 49 -147 55 -186 12 -16 -18 -18 -46 -23 -282 -5 -239
-7 -264 -26 -301 -53 -103 -210 -100 -265 5 -17 31 -19 61 -19 288 0 162 -4
261 -11 274 -24 45 -122 62 -175 29z"/>
<path d="M4765 3085 l-25 -24 0 -390 0 -389 26 -31 26 -31 249 0 c272 0 294 4
317 55 35 77 -5 147 -93 161 -27 4 -103 4 -169 2 l-121 -6 -2 68 -1 68 124 4
124 3 32 32 c44 44 46 100 5 141 -27 26 -31 27 -157 30 l-130 4 0 59 0 59 143
0 c78 0 159 5 179 10 79 22 105 114 49 171 l-29 29 -262 0 -261 0 -24 -25z"/>
</g>
</svg>
