<?xml version="1.0" standalone="no"?>
<!DOCTYPE svg PUBLIC "-//W3C//DTD SVG 20010904//EN"
 "http://www.w3.org/TR/2001/REC-SVG-20010904/DTD/svg10.dtd">
<svg version="1.0" xmlns="http://www.w3.org/2000/svg"
 width="1024.000000pt" height="1024.000000pt" viewBox="0 0 1024.000000 1024.000000"
 preserveAspectRatio="xMidYMid meet">

<g transform="translate(0.000000,1024.000000) scale(0.100000,-0.100000)"
fill="#000000" stroke="none">
<path d="M0 5120 l0 -5120 5120 0 5120 0 0 5120 0 5120 -5120 0 -5120 0 0
-5120z m5296 2934 c18 -2 44 -14 58 -25 23 -18 26 -28 26 -80 l0 -60 -57 8
c-72 10 -161 10 -235 0 l-58 -7 0 65 c0 77 14 91 106 103 56 8 87 7 160 -4z
m548 -150 c20 -8 21 -38 1 -54 -32 -26 -63 18 -33 48 14 14 12 14 32 6z m-575
-136 c33 -24 60 -45 60 -48 0 -12 -122 -91 -134 -86 -26 10 -116 79 -113 87 3
9 109 87 120 88 4 1 35 -18 67 -41z m1139 -107 c-4 -33 -33 -39 -49 -10 -10
19 -9 25 6 35 25 18 47 6 43 -25z m-2363 -1 c0 -18 -6 -26 -23 -28 -24 -4 -38
18 -28 44 3 9 15 14 28 12 17 -2 23 -10 23 -28z m1202 -112 c21 -18 49 -40 61
-48 23 -15 22 -15 -41 -61 l-64 -46 -57 43 c-32 23 -58 45 -59 49 -2 8 103 94
115 95 3 0 24 -15 45 -32z m-237 -668 l0 -690 -22 -4 c-13 -3 -49 -10 -80 -16
-72 -14 -122 -47 -126 -82 -2 -20 7 -39 39 -73 23 -25 45 -45 50 -45 5 0 18 9
28 19 33 33 88 43 258 48 182 6 275 -5 340 -42 l42 -23 40 38 c63 61 63 103 0
136 -25 13 -144 43 -171 44 -5 0 -8 311 -8 691 l0 691 56 -7 c84 -10 313 -71
422 -111 469 -175 874 -530 1086 -951 116 -232 190 -474 212 -690 l7 -73 -209
0 c-174 0 -213 -3 -232 -16 -29 -20 -30 -76 -2 -104 19 -19 33 -20 235 -20
l215 0 0 -39 c0 -66 -12 -161 -20 -156 -5 3 -6 -4 -3 -15 5 -20 1 -20 -568
-20 -611 0 -611 0 -635 -49 -16 -30 -7 -59 24 -79 23 -15 83 -18 593 -22 l566
-5 -23 -104 c-13 -58 -27 -107 -31 -110 -5 -3 -8 -15 -8 -26 0 -20 -8 -20
-484 -23 -267 -1 -483 0 -480 2 2 3 212 6 466 7 254 1 468 6 475 11 10 7 9 11
-5 22 -14 11 -17 25 -15 67 3 49 1 54 -19 57 -19 3 -23 10 -23 41 l0 38 -117
4 c-65 2 -243 4 -397 4 l-278 0 -27 -75 c-15 -41 -40 -100 -56 -130 l-30 -55
-359 -3 c-213 -1 -364 2 -369 7 -6 6 -7 181 -2 453 l7 443 52 25 c28 14 51 32
51 40 0 21 -113 57 -205 66 -127 12 -319 -24 -344 -65 -5 -7 14 -21 52 -39
l60 -27 6 -250 c4 -137 6 -340 4 -450 l-3 -200 -860 4 c-585 2 -862 7 -867 14
-8 13 -58 211 -58 232 0 8 5 15 11 15 5 0 7 -5 4 -10 -9 -15 26 -160 37 -154
5 4 12 -3 15 -15 3 -12 10 -21 15 -21 5 0 6 -5 3 -10 -10 -15 -25 -2 -26 23
-1 14 -3 16 -6 6 -5 -21 23 -74 32 -59 5 8 10 8 21 -1 9 -7 36 -9 84 -4 l70 7
0 74 c0 43 -4 74 -10 74 -5 0 -10 9 -10 20 0 13 -7 20 -20 20 -22 0 -29 39 -7
41 6 0 125 2 262 4 138 2 346 7 463 12 208 8 214 9 233 32 26 32 24 67 -6 96
-23 24 -30 25 -150 25 -69 0 -125 4 -125 9 0 5 -3 18 -6 28 -5 15 -4 15 5 3 8
-11 10 7 9 70 l-1 85 -7 -65 c-6 -61 -7 -62 -10 -20 -1 26 -5 36 -7 23 -2 -13
-11 -23 -20 -23 -10 0 -14 -6 -10 -20 4 -17 0 -20 -29 -20 -27 0 -34 4 -34 20
0 18 -7 20 -66 20 -61 0 -66 -1 -61 -20 5 -19 0 -20 -74 -20 -46 0 -79 -4 -79
-10 0 -5 -18 -10 -40 -10 -22 0 -40 -4 -40 -10 0 -5 -9 -10 -20 -10 -11 0 -20
-4 -20 -10 0 -5 26 -11 58 -13 31 -2 10 -2 -48 0 -58 2 -123 6 -145 9 -31 4
-37 3 -25 -6 11 -8 -18 -10 -116 -8 l-132 3 -6 44 c-3 24 -6 72 -6 107 l0 64
188 0 c103 0 204 5 224 10 59 17 75 66 37 114 l-20 26 -211 0 -210 0 7 77 c63
695 567 1346 1250 1616 145 57 427 134 503 136 l22 1 0 -690z m254 428 c28
-23 55 -45 59 -48 7 -6 -56 -58 -110 -93 -8 -5 -35 10 -73 39 -33 26 -60 48
-60 50 0 3 123 94 128 94 2 0 27 -19 56 -42z m-1684 -17 c14 -28 -13 -55 -41
-41 -22 12 -23 15 -9 41 14 24 36 24 50 0z m3295 -11 c0 -18 -6 -26 -23 -28
-27 -4 -40 22 -22 44 19 22 45 13 45 -16z m-1601 -211 c32 -23 54 -45 49 -49
-33 -31 -107 -80 -119 -80 -14 0 -123 79 -123 90 0 7 112 78 125 79 6 1 37
-18 68 -40z m-7 -216 c27 -21 51 -41 52 -46 1 -7 -103 -97 -113 -97 -2 0 -31
22 -65 49 l-61 49 57 41 c32 23 63 41 69 41 6 0 33 -17 61 -37z m-2010 1 c3
-8 -2 -23 -11 -32 -15 -15 -17 -15 -32 0 -21 21 -11 48 16 48 11 0 23 -7 27
-16z m3948 -4 c8 -26 -1 -40 -26 -40 -22 0 -34 22 -25 45 8 22 44 18 51 -5z
m-1932 -233 l56 -44 -64 -51 -64 -51 -53 44 c-28 25 -56 45 -61 45 -5 0 -7 4
-5 10 5 13 109 90 124 90 6 0 37 -19 67 -43z m-3 -234 c30 -20 57 -39 60 -41
3 -2 -6 -12 -20 -21 -13 -9 -44 -31 -68 -49 l-43 -33 -59 53 c-32 29 -58 54
-57 54 15 14 114 74 122 74 5 0 35 -17 65 -37z m-2290 -128 c17 -20 5 -45 -20
-45 -23 0 -35 22 -26 45 7 19 30 19 46 0z m4490 0 c16 -19 6 -45 -18 -45 -28
0 -43 20 -31 42 12 22 32 23 49 3z m-2260 -477 c0 -109 -28 -580 -35 -587 -3
-2 -5 14 -5 36 0 23 -9 92 -19 155 -11 62 -24 181 -30 263 -6 83 -13 167 -15
188 l-4 37 54 0 54 0 0 -92z m-2213 -162 c24 -21 28 -31 27 -72 -1 -38 -6 -52
-28 -71 -82 -70 -202 37 -140 125 32 46 98 55 141 18z m4550 -11 c51 -59 7
-155 -70 -155 -89 0 -130 99 -67 162 28 27 36 30 73 25 28 -4 49 -14 64 -32z
m-3662 -225 c-53 -13 -115 -11 -110 3 4 8 25 11 73 8 53 -4 61 -6 37 -11z
m133 -7 c-10 -2 -28 -2 -40 0 -13 2 -5 4 17 4 22 1 32 -1 23 -4z m90 0 c-10
-2 -26 -2 -35 0 -10 3 -2 5 17 5 19 0 27 -2 18 -5z m-791 -295 c-3 -8 -6 -5
-6 6 -1 11 2 17 5 13 3 -3 4 -12 1 -19z m113 -58 c0 -5 -13 -10 -30 -10 -16 0
-30 5 -30 10 0 6 14 10 30 10 17 0 30 -4 30 -10z m4029 -184 c17 -20 2 -46
-25 -46 -26 0 -40 20 -30 45 7 19 40 20 55 1z m-4484 -44 c-3 -3 -11 0 -18 7
-9 10 -8 11 6 5 10 -3 15 -9 12 -12z m2073 -129 l-3 -138 -154 -3 -154 -3 -71
43 c-39 24 -115 86 -171 140 l-100 98 328 0 328 0 -3 -137z m952 118 c-11 -22
-134 -131 -212 -189 -98 -72 -101 -73 -271 -70 l-152 3 -3 138 -3 137 326 0
c319 0 325 0 315 -19z m-2453 3 c-3 -3 -12 -4 -19 -1 -8 3 -5 6 6 6 11 1 17
-2 13 -5z m3446 -1 c-7 -2 -19 -2 -25 0 -7 3 -2 5 12 5 14 0 19 -2 13 -5z
m-3349 -429 c3 -8 2 -12 -4 -9 -6 3 -10 10 -10 16 0 14 7 11 14 -7z m3596
-114 c0 -5 -2 -10 -4 -10 -3 0 -8 5 -11 10 -3 6 -1 10 4 10 6 0 11 -4 11 -10z
m12 -42 c-7 -7 -10 -5 -7 8 5 29 6 30 12 16 3 -8 1 -18 -5 -24z m-4438 -1030
c53 -113 243 -548 263 -603 11 -32 11 -44 2 -62 -11 -21 -20 -23 -81 -23 l-69
0 -36 75 -35 75 -164 0 -164 0 -25 -57 c-40 -92 -33 -88 -124 -91 -67 -2 -82
0 -87 13 -6 16 17 75 114 290 27 61 82 182 121 270 98 218 87 205 171 205 l69
0 45 -92z m563 5 c43 -49 130 -150 193 -226 l115 -137 5 222 5 223 80 0 80 0
8 -270 c10 -357 7 -483 -13 -495 -8 -5 -40 -10 -70 -10 l-55 0 -61 73 c-34 39
-99 117 -145 172 -131 158 -163 195 -171 195 -5 0 -8 -94 -8 -208 0 -148 -3
-211 -12 -220 -19 -19 -133 -15 -149 5 -18 21 -26 711 -9 743 9 17 21 20 70
20 l59 0 78 -87z m779 61 c4 -14 5 -182 2 -374 -3 -269 -7 -352 -17 -364 -19
-23 -146 -23 -155 0 -8 21 -8 321 1 567 l6 197 78 0 c76 0 79 -1 85 -26z m305
-27 c25 -28 82 -98 128 -154 45 -57 86 -105 90 -108 5 -3 17 8 27 23 23 36
169 219 208 260 28 30 34 32 97 32 52 0 68 -4 73 -16 3 -9 6 -179 6 -378 0
-268 -3 -365 -12 -374 -16 -16 -140 -16 -156 0 -9 9 -12 69 -12 210 0 121 -4
198 -10 198 -5 0 -49 -53 -98 -117 -49 -65 -97 -125 -107 -133 -20 -17 -10
-27 -144 144 -46 58 -87 106 -92 106 -5 0 -9 -89 -9 -198 0 -141 -3 -201 -12
-210 -7 -7 -40 -12 -78 -12 -38 0 -71 5 -78 12 -18 18 -17 754 1 761 6 3 39 6
72 6 l60 1 46 -53z m1259 -29 l0 -83 -172 0 -173 0 -3 -69 c-2 -49 1 -72 10
-77 7 -5 73 -9 146 -9 l132 0 0 -75 0 -74 -142 -3 -143 -3 -3 -72 -3 -73 176
0 175 0 0 -57 c0 -32 -3 -68 -6 -80 l-6 -23 -238 0 c-131 0 -245 3 -254 6 -14
5 -16 49 -16 383 0 208 3 381 7 384 3 4 120 7 260 7 l253 0 0 -82z m194 5 c3
-42 6 -118 6 -170 l0 -93 225 0 225 0 0 165 0 165 45 0 45 0 -2 -382 -3 -383
-40 0 -40 0 -3 168 -2 167 -225 0 -225 0 -2 -167 -3 -168 -45 0 -45 0 -3 375
c-1 206 0 381 3 387 2 8 21 13 43 13 l39 0 7 -77z m766 -170 c0 -145 5 -264
11 -287 13 -46 82 -124 126 -142 78 -33 196 -9 256 52 61 61 62 65 65 357 l3
268 42 -3 42 -3 0 -275 c0 -260 -1 -278 -21 -321 -74 -160 -268 -229 -432
-155 -73 34 -124 86 -158 163 -23 52 -24 61 -24 317 0 144 3 266 7 269 3 4 24
7 45 7 l38 0 0 -247z m1103 228 c48 -15 103 -63 128 -112 36 -71 19 -174 -35
-217 l-27 -21 29 -15 c93 -48 129 -186 74 -280 -28 -47 -95 -93 -154 -105 -32
-7 -135 -10 -253 -9 l-200 3 -3 374 c-2 284 1 377 10 388 10 13 42 14 203 10
104 -3 207 -10 228 -16z m-3790 -1016 c21 -9 22 -19 3 -34 -11 -9 -20 -9 -35
-2 -32 17 -60 13 -86 -14 -53 -52 -16 -125 62 -125 39 0 43 2 43 25 0 18 -5
25 -20 25 -11 0 -20 7 -20 15 0 11 11 15 40 15 l40 0 0 -49 c0 -51 -18 -78
-45 -67 -8 3 -15 1 -15 -4 0 -17 -41 -11 -87 11 -110 53 -94 186 26 219 24 6
52 2 94 -15z m280 -177 c55 3 57 2 57 -22 0 -26 -1 -26 -80 -26 l-80 0 1 123
c1 67 4 111 6 97 3 -14 9 -29 15 -35 6 -7 9 -7 8 0 -2 6 -1 24 1 40 2 17 5
-17 8 -75 l6 -105 58 3z m1047 90 c0 -4 -7 -5 -15 -2 -10 4 -15 0 -15 -12 0
-14 2 -16 9 -6 12 20 16 19 40 -2 l21 -19 0 71 c0 70 1 72 25 72 l25 0 0 -119
c0 -114 -1 -120 -20 -118 -19 1 -24 10 -21 30 1 5 -3 6 -7 3 -5 -3 -33 19 -61
49 -29 30 -54 55 -57 55 -2 0 -4 -29 -4 -65 0 -61 -1 -65 -22 -65 -23 0 -23 2
-20 107 2 60 5 114 8 122 3 10 21 -2 59 -39 30 -30 55 -58 55 -62z m-1660 87
c19 -23 -5 -48 -32 -34 -26 14 -72 7 -76 -11 -2 -10 19 -26 60 -45 52 -25 64
-35 66 -57 2 -17 -4 -34 -17 -47 -38 -38 -181 -21 -156 19 6 10 11 9 21 -4 7
-11 30 -19 56 -22 l43 -3 -38 8 c-51 11 -56 19 -10 19 44 -1 69 4 80 17 4 4 3
5 -3 2 -7 -4 -14 0 -18 8 -3 8 -26 20 -51 26 -45 11 -85 47 -85 76 0 8 11 25
25 38 19 20 34 25 73 25 32 0 54 -5 62 -15z m1005 3 c28 -12 32 -30 11 -47
-10 -9 -16 -8 -26 4 -18 22 -76 19 -100 -5 -22 -22 -26 -69 -10 -100 15 -27
64 -49 84 -38 10 6 20 8 23 5 2 -3 -5 -8 -16 -12 -12 -3 -21 -11 -21 -16 0
-14 -37 -11 -70 6 -55 28 -74 86 -50 149 20 54 113 83 175 54z m307 -10 c15
-23 88 -192 88 -202 0 -16 -39 -3 -45 14 -5 17 -15 20 -66 20 -48 0 -61 -4
-71 -20 -11 -17 -48 -29 -48 -16 0 2 15 40 34 84 65 151 78 166 108 120z m800
-28 l-4 -51 64 3 63 3 3 48 c3 39 6 47 23 47 18 0 19 -8 19 -120 l0 -120 -26
0 c-24 0 -25 2 -23 53 l3 52 -62 3 -62 3 0 -56 c0 -48 -2 -55 -20 -55 -19 0
-20 7 -20 120 0 118 0 120 23 120 20 0 22 -4 19 -50z m488 32 c0 -14 -7 -17
-40 -14 -62 6 -90 -4 -90 -33 0 -24 3 -25 55 -25 48 0 55 -3 55 -19 0 -17 -8
-20 -52 -23 -49 -3 -53 -5 -56 -30 l-3 -28 65 0 c62 0 66 -1 66 -22 0 -22 -4
-23 -85 -23 l-85 0 0 118 0 117 85 0 c75 0 85 -2 85 -18z m286 8 c58 -22 73
-92 30 -135 l-24 -24 25 -33 c20 -28 22 -33 8 -36 -19 -4 -52 23 -60 49 -5 14
-16 19 -41 19 -32 0 -34 -2 -34 -35 0 -28 -4 -35 -20 -35 -19 0 -20 7 -20 120
l0 120 54 0 c30 0 67 -5 82 -10z m367 -10 c-5 -17 -14 -20 -65 -20 -59 0 -59
0 -56 -27 3 -27 5 -28 56 -25 46 2 52 0 52 -18 0 -18 -7 -20 -54 -20 -56 0
-72 -12 -60 -45 5 -11 22 -15 65 -15 56 0 59 -1 59 -25 0 -25 -1 -25 -85 -25
l-85 0 0 120 0 120 89 0 c84 0 89 -1 84 -20z m-2213 -134 c0 -48 -24 -77 -65
-75 -13 0 -7 4 15 12 32 11 35 16 38 54 l3 42 -43 4 -43 4 48 1 47 2 0 -44z
m-47 17 c-7 -2 -21 -2 -30 0 -10 3 -4 5 12 5 17 0 24 -2 18 -5z"/>
<path d="M4181 5744 c0 -11 3 -14 6 -6 3 7 2 16 -1 19 -3 4 -6 -2 -5 -13z"/>
<path d="M3303 5393 c9 -2 23 -2 30 0 6 3 -1 5 -18 5 -16 0 -22 -2 -12 -5z"/>
<path d="M3423 5393 c9 -2 23 -2 30 0 6 3 -1 5 -18 5 -16 0 -22 -2 -12 -5z"/>
<path d="M7100 5203 c8 -3 19 -11 23 -17 6 -7 7 -6 4 4 -2 8 -12 16 -23 17
-13 2 -15 1 -4 -4z"/>
<path d="M4160 5181 c0 -10 19 -25 25 -20 1 2 -3 10 -11 17 -8 7 -14 8 -14 3z"/>
<path d="M7094 5099 c-3 -6 -1 -16 5 -22 8 -8 11 -5 11 11 0 24 -5 28 -16 11z"/>
<path d="M4230 4985 c0 -8 4 -15 10 -15 5 0 7 7 4 15 -4 8 -8 15 -10 15 -2 0
-4 -7 -4 -15z"/>
<path d="M4280 4970 c0 -5 5 -10 11 -10 5 0 7 5 4 10 -3 6 -8 10 -11 10 -2 0
-4 -4 -4 -10z"/>
<path d="M2645 2905 c-26 -64 -45 -118 -42 -121 2 -3 47 -3 100 -2 l95 3 -47
113 c-27 62 -50 115 -53 117 -3 3 -26 -47 -53 -110z"/>
<path d="M7520 3020 l0 -80 85 0 c99 0 141 16 152 58 21 79 -11 101 -139 102
l-98 0 0 -80z"/>
<path d="M7520 2720 l0 -80 109 0 c121 0 152 8 176 43 12 19 13 30 4 56 -17
49 -52 61 -179 61 l-110 0 0 -80z"/>
<path d="M4000 2103 c0 -10 -7 -31 -15 -47 -12 -23 -13 -26 -1 -17 11 9 15 9
19 -1 3 -7 6 8 6 35 1 26 -1 47 -4 47 -3 0 -5 -8 -5 -17z"/>
<path d="M4180 2135 c0 -19 2 -35 4 -35 2 0 6 16 8 35 2 19 0 35 -4 35 -4 0
-8 -16 -8 -35z"/>
<path d="M5245 2170 c-3 -5 -1 -10 4 -10 6 0 11 5 11 10 0 6 -2 10 -4 10 -3 0
-8 -4 -11 -10z"/>
<path d="M5310 2100 c-12 -7 -10 -9 7 -7 12 0 19 5 17 9 -6 10 -6 10 -24 -2z"/>
<path d="M5359 2094 c-15 -19 -21 -47 -8 -38 5 3 7 10 4 15 -4 5 1 9 9 9 9 0
16 7 16 15 0 19 -4 19 -21 -1z"/>
<path d="M5210 2050 c0 -5 5 -10 10 -10 6 0 10 5 10 10 0 6 -4 10 -10 10 -5 0
-10 -4 -10 -10z"/>
<path d="M4544 2035 c11 -8 29 -14 40 -14 20 1 21 1 1 6 -11 3 -24 9 -29 14
-6 5 -15 9 -20 9 -6 0 -2 -7 8 -15z"/>
<path d="M4929 2149 c-6 -12 -15 -35 -20 -52 -7 -24 -6 -28 3 -19 7 7 27 12
45 12 l33 0 -20 40 c-11 22 -22 40 -25 40 -2 0 -9 -10 -16 -21z"/>
<path d="M5910 2219 c0 -5 5 -7 10 -4 6 3 10 8 10 11 0 2 -4 4 -10 4 -5 0 -10
-5 -10 -11z"/>
<path d="M6450 2161 c0 -45 19 -57 70 -46 24 5 30 12 30 34 0 37 -17 51 -62
51 -38 0 -38 0 -38 -39z"/>
</g>
</svg>
